<svg xmlns="http://www.w3.org/2000/svg" width="285" height="67" viewbox="0 0 285 67" fill="none"> <path class="second" opacity="0.5" fill-rule="evenodd" clip-rule="evenodd" d="M75 36.6543H285V51.6543H75V36.6543Z" fill="#949EC4"></path> <path class="first" fill-rule="evenodd" clip-rule="evenodd" d="M75 16.6543H180V31.6543H75V16.6543Z" fill="#F38800"></path> <mask id="mask0_0_368" style="mask-type: alpha;" maskunits="userSpaceOnUse" x="0" y="0" width="56" height="67"> <path fill-rule="evenodd" clip-rule="evenodd" d="M0 0H55.2528V66.1693H0V0Z" fill="white"></path> </mask> <g class="third" mask="url(#mask0_0_368)"> <path fill-rule="evenodd" clip-rule="evenodd" d="M28.7999 7.80586C28.3991 7.7486 27.9983 7.71997 27.5975 7.71997C27.1967 7.71997 26.8245 7.7486 26.4237 7.80586C22.1867 8.37843 18.9231 12.0143 18.9231 16.3945C18.9231 18.3698 19.5815 20.1734 20.6694 21.6335C22.1008 23.523 24.248 24.7826 26.6814 25.0403C26.9963 25.0689 27.2826 25.0976 27.5975 25.0976C27.941 25.0976 28.2846 25.0689 28.5995 25.0117C28.9717 24.9831 29.3438 24.9258 29.6874 24.8399H29.716C31.2906 24.4677 32.6647 23.6375 33.7526 22.5496C34.0389 22.2633 34.3252 21.9484 34.5542 21.6049C35.6421 20.1735 36.3005 18.3412 36.3005 16.3945C36.3005 12.0143 33.0369 8.37846 28.7999 7.80588M27.5975 21.6049C24.7347 21.6049 22.4158 19.2859 22.4158 16.3944C22.4158 13.5316 24.7347 11.2127 27.5975 11.2127C30.489 11.2127 32.8079 13.5316 32.8079 16.3944C32.8079 19.2859 30.489 21.6049 27.5975 21.6049Z" fill="#F38800"></path> <path fill-rule="evenodd" clip-rule="evenodd" d="M28.2622 8.31563H26.9624H26.9567C26.6533 8.3099 26.4099 8.0637 26.4128 7.76023C26.4128 7.60277 26.304 7.37374 26.2009 7.1533L26.0091 6.87274C25.8603 6.79544 25.7057 6.71242 25.594 6.58645L25.4852 6.46335L25.4222 6.19997L25.3993 6.05396C25.3707 5.89364 25.3593 5.82779 25.3535 5.75909C25.3049 5.42413 25.2648 5.06628 25.2419 4.70556C25.219 4.41355 25.219 4.10436 25.219 3.8009L25.2219 3.64058C25.2219 3.29131 25.2247 2.94204 25.2333 2.5985C25.2476 1.90282 25.2677 1.20429 25.3249 0.502883L25.365 -0.000976562H29.8625L29.8997 0.505753C29.9541 1.20715 29.9742 1.90283 29.9913 2.60137C29.9971 2.84758 29.9999 3.09951 29.9999 3.35144L30.0028 3.63486V3.89252C29.9999 4.16449 29.9999 4.43933 29.9799 4.7113C29.957 5.0663 29.9198 5.42415 29.8682 5.78201L29.7995 6.19999L29.6249 6.58648C29.5218 6.70958 29.3644 6.79547 29.2127 6.87563L29.0867 6.94434L29.0237 7.15333C28.9178 7.37377 28.809 7.6028 28.8119 7.76026C28.8147 8.06372 28.5714 8.30993 28.2679 8.31566L28.2622 8.31563Z" fill="#F38800"></path> <path fill-rule="evenodd" clip-rule="evenodd" d="M27.5402 36.4919C26.6527 36.4919 25.937 37.2077 25.937 38.1238V47.3136C25.937 48.201 26.6527 48.9168 27.5402 48.9168C28.4277 48.9168 29.172 48.201 29.172 47.3136V38.1238C29.172 37.2077 28.4277 36.4919 27.5402 36.4919ZM28.0555 47.3136C28.0555 47.5999 27.8265 47.8289 27.5402 47.8289C27.2539 47.8289 27.0249 47.5999 27.0249 47.3136V38.1238C27.0249 37.8375 27.2539 37.6085 27.5402 37.6085C27.8265 37.6085 28.0555 37.8375 28.0555 38.1238V47.3136Z" fill="#F38800"></path> <path fill-rule="evenodd" clip-rule="evenodd" d="M25.7945 24.2383L21.8151 21.719C21.9296 21.4327 20.899 21.0605 20.7845 21.3468L20.67 21.6331L13.4842 41.3296L12.4822 44.1066L8.33112 55.4721C7.7013 57.2471 8.35975 59.1652 9.84843 60.1958L11.7379 55.3862C11.6806 55.2717 11.652 55.1572 11.652 55.0141C11.652 54.5846 11.9956 54.2125 12.4536 54.2125C12.883 54.2125 13.2552 54.5846 13.2552 55.0141C13.2552 55.3576 13.0548 55.6439 12.7685 55.787L10.8504 60.6539C10.8504 60.6825 10.8246 60.6825 10.7932 60.7112L11.7379 61.0833L12.7685 61.4841H12.8544C12.8544 61.5127 12.883 61.5127 12.883 61.5127H12.9117H12.9718C13.0548 61.5127 13.1121 61.4841 13.1693 61.4841C13.2552 61.4269 13.3411 61.3982 13.3983 61.3123L13.4842 61.1406L19.6966 44.1065L20.7272 41.3296L26.6819 25.0399L26.8251 24.6105C26.9396 24.3242 25.9089 23.952 25.7944 24.2383" fill="#F38800"></path> <path fill-rule="evenodd" clip-rule="evenodd" d="M11.0759 66.1698L12.9768 60.9622L11.7974 60.5271L11.0759 66.1698Z" fill="#F38800"></path> <path fill-rule="evenodd" clip-rule="evenodd" d="M19.8973 41.3269L19.3248 44.1039H27.0258V41.3269H19.8973ZM8.58911 41.3269V44.1039H13.0265L13.914 41.3269H8.58911Z" fill="#F38800"></path> <path fill-rule="evenodd" clip-rule="evenodd" d="M2.7197 40.0129C1.23102 40.0129 0 41.2153 0 42.704C0 44.1927 1.23102 45.3951 2.7197 45.3951H8.96069V40.0129H2.7197ZM7.84418 44.3072H2.7197C1.83222 44.3072 1.11651 43.5915 1.11651 42.704C1.11651 41.8165 1.83222 41.1008 2.7197 41.1008H7.84418V44.3072Z" fill="#F38800"></path> <path fill-rule="evenodd" clip-rule="evenodd" d="M45.319 60.2817L43.5154 55.4149C43.6013 55.3003 43.6299 55.1572 43.6299 55.0141C43.6299 54.5846 43.2578 54.2125 42.8283 54.2125C42.3703 54.2125 42.0267 54.5846 42.0267 55.0141C42.0267 55.329 42.1985 55.6152 42.4562 55.7298V55.7584L44.3456 60.7684L42.4848 61.4841C42.4562 61.4841 42.3989 61.5128 42.3703 61.5128H42.3416H42.2844C42.1985 61.5128 42.1126 61.4841 42.0554 61.4555C41.9695 61.4269 41.9122 61.3696 41.855 61.3124C41.8263 61.2551 41.7977 61.2265 41.7691 61.1692V61.1406L28.4569 24.6105C28.3424 24.3242 29.373 23.952 29.4875 24.2383L33.4382 21.719C33.3237 21.4327 34.3543 21.0605 34.4688 21.3468L46.9222 55.4721C47.5806 57.3044 46.8935 59.2511 45.319 60.2817" fill="#F38800"></path> <path fill-rule="evenodd" clip-rule="evenodd" d="M42.2939 60.9623L44.1949 66.1698L43.4734 60.5271L42.2939 60.9623Z" fill="#F38800"></path> <path fill-rule="evenodd" clip-rule="evenodd" d="M41.3685 41.3269L41.941 44.1039H47.409V41.3269H41.3685ZM35.3851 41.3269H28.228V44.1039H35.9577L35.3851 41.3269Z" fill="#F38800"></path> <path fill-rule="evenodd" clip-rule="evenodd" d="M52.562 40.0129H46.321V45.3951H52.562C54.0507 45.3951 55.2531 44.1927 55.2531 42.704C55.2531 41.2153 54.0507 40.0129 52.562 40.0129ZM52.562 44.3072H47.4089V41.1008H52.562C53.4495 41.1008 54.1652 41.8165 54.1652 42.704C54.1652 43.5915 53.4495 44.3072 52.562 44.3072" fill="#F38800"></path> </g> </svg>