<svg xmlns="http://www.w3.org/2000/svg" width="285" height="59" viewbox="0 0 285 59" fill="none"> <path class="second" opacity="0.5" fill-rule="evenodd" clip-rule="evenodd" d="M75 29.6543H285V44.6543H75V29.6543Z" fill="#949EC4"></path> <path class="first" fill-rule="evenodd" clip-rule="evenodd" d="M75 9.6543H222V24.6543H75V9.6543Z" fill="#00ACC8"></path> <mask id="mask0_0_408" style="mask-type: alpha;" maskunits="userSpaceOnUse" x="0" y="0" width="48" height="59"> <path fill-rule="evenodd" clip-rule="evenodd" d="M0 0.544922H47.9721V58.7637H0V0.544922Z" fill="white"></path> </mask> <g class="third" mask="url(#mask0_0_408)"> <path fill-rule="evenodd" clip-rule="evenodd" d="M4.82047 51.0781H43.1501V56.424H4.82047V51.0781ZM2.48291 58.7631H45.4908V48.739H2.48291V58.7631Z" fill="#949EB2"></path> <mask id="mask1_0_408" style="mask-type: alpha;" maskunits="userSpaceOnUse" x="0" y="0" width="48" height="59"> <path fill-rule="evenodd" clip-rule="evenodd" d="M0 0.544922H47.9723V58.7634H0V0.544922Z" fill="white"></path> </mask> <g mask="url(#mask1_0_408)"> <path fill-rule="evenodd" clip-rule="evenodd" d="M7.10791 8.83138V32.7073C7.10791 33.6235 7.85374 34.3788 8.77938 34.3788H39.6992C40.6249 34.3788 41.3707 33.6235 41.3707 32.7073V8.83138C41.3707 7.90574 40.6249 7.15991 39.6992 7.15991H8.77938C7.85374 7.15991 7.10791 7.90574 7.10791 8.83138ZM19.5462 17.6046H17.8044V15.8644H16.1345V17.6046H14.3833V15.8644H16.0938V14.1241H14.3833V12.3729H16.1345V14.1241H17.8044V12.3729H19.5462V14.1241H17.845V15.8644H19.5462V17.6046ZM27.9677 20.8757H26.2164V22.6159H22.2621V20.8757H20.5219V19.1244H22.2621V20.8757H26.2164V19.1244H27.9677V20.8757ZM34.0953 17.6046H32.3551V15.8644H30.6742V17.6046H28.934V15.8644H30.643V14.1241H28.934V12.3729H30.6742V14.1241H32.3551V12.3729H34.0953V14.1241H32.3848V15.8644H34.0953V17.6046ZM32.6365 25.9557V27.6663H28.8323V25.926H32.6365V24.2155H34.3768V25.9557H32.6365ZM19.6463 27.6976H28.8339V29.4378H19.6463V27.6976ZM14.1018 24.2155H15.8421V25.926H19.6463V27.6663H15.8421V25.9557H14.1018V24.2155Z" fill="#1FACC8"></path> <g opacity="0.5"> <mask id="mask2_0_408" style="mask-type: alpha;" maskunits="userSpaceOnUse" x="37" y="42" width="5" height="3"> <path fill-rule="evenodd" clip-rule="evenodd" d="M37.6531 42.8069H41.0448V44.551H37.6531V42.8069Z" fill="white"></path> </mask> <g mask="url(#mask2_0_408)"> <path fill-rule="evenodd" clip-rule="evenodd" d="M37.6526 42.8081H41.044V44.5515H37.6526V42.8081Z" fill="#617480"></path> </g> </g> <g opacity="0.5"> <mask id="mask3_0_408" style="mask-type: alpha;" maskunits="userSpaceOnUse" x="8" y="41" width="12" height="2"> <path fill-rule="evenodd" clip-rule="evenodd" d="M8.19189 41.063H19.1039V42.8072H8.19189V41.063Z" fill="white"></path> </mask> <g mask="url(#mask3_0_408)"> <path fill-rule="evenodd" clip-rule="evenodd" d="M8.19116 41.0635H19.1034V42.8069H8.19116V41.0635Z" fill="#617480"></path> </g> </g> <path fill-rule="evenodd" clip-rule="evenodd" d="M0 8.32687V51.0799H47.9723V8.32687C47.9723 4.04422 44.473 0.544922 40.1888 0.544922H7.78351C3.49929 0.544922 0 4.04422 0 8.32687ZM2.35788 8.08451C2.47046 5.20283 4.8643 2.88403 7.78351 2.88403H40.1888C43.183 2.88403 45.6331 5.33416 45.6331 8.32686V48.7408H2.33912V8.32686C2.33912 8.25337 2.33912 8.15956 2.35788 8.0845" fill="#949EB2"></path> </g> </g> </svg>