<svg xmlns="http://www.w3.org/2000/svg" width="193" height="51" viewbox="0 0 193 51" fill="none"> <mask id="mask0_0_335" style="mask-type: alpha;" maskunits="userSpaceOnUse" x="0" y="0" width="193" height="51"> <path fill-rule="evenodd" clip-rule="evenodd" d="M0 0H192.703V50.2188H0V0Z" fill="white"></path> </mask> <g mask="url(#mask0_0_335)"> <path class="fourth" fill-rule="evenodd" clip-rule="evenodd" d="M43.4677 18.3341L34.2674 15.8695L31.8028 6.67005L38.3846 0.0890436C34.4644 -0.363706 30.3841 0.909804 27.3773 3.91587C24.3539 6.9392 23.0796 11.0477 23.5544 14.9868C23.6697 15.9456 23.9357 18.0901 21.2616 20.7643L2.35263 39.674C2.26318 39.7626 2.18471 39.8568 2.11017 39.9533C1.96814 40.071 1.83004 40.1958 1.69665 40.33C-0.56555 42.5914 -0.56555 46.2597 1.69665 48.5219C3.95963 50.7841 7.62717 50.7841 9.89015 48.5219C10.0228 48.3893 10.1475 48.2504 10.2652 48.1084C10.3617 48.0338 10.4567 47.9554 10.5454 47.8659L29.4551 28.957C31.3304 26.9584 33.912 26.4617 34.6841 26.5873C38.7871 27.2542 43.1397 26.0051 46.3027 22.8421C49.3464 19.7975 50.6144 15.6529 50.113 11.6888L43.4677 18.3341ZM7.65699 46.8631C6.50353 48.0166 4.63209 48.0166 3.47863 46.8631C2.32517 45.7089 2.32517 43.8382 3.47863 42.6847C4.63209 41.5305 6.50352 41.5305 7.65699 42.6847C8.81045 43.8382 8.81045 45.7096 7.65699 46.8631ZM30.1801 22.4419L12.5015 40.1212C11.8377 40.7843 10.7619 40.7843 10.0981 40.1204C9.43426 39.4566 9.43426 38.3808 10.0981 37.7178L27.7767 20.0392C28.4405 19.3754 29.5163 19.3754 30.1801 20.0392C30.8431 20.7023 30.8431 21.7788 30.1801 22.4419Z" fill="#FCB53B"></path> <path class="third" fill-rule="evenodd" clip-rule="evenodd" d="M90.9628 18.3341L81.7626 15.8695L79.2979 6.67005L85.8797 0.0890436C81.9595 -0.363706 77.8792 0.909804 74.8724 3.91587C71.8491 6.9392 70.5748 11.0477 71.0495 14.9868C71.1648 15.9456 71.4308 18.0901 68.7567 20.7643L49.8478 39.674C49.7583 39.7626 49.6798 39.8568 49.6053 39.9533C49.4633 40.071 49.3252 40.1958 49.1918 40.33C46.9296 42.5914 46.9296 46.2597 49.1918 48.5219C51.4547 50.7841 55.1223 50.7841 57.3853 48.5219C57.5179 48.3893 57.6426 48.2504 57.7603 48.1084C57.8569 48.0338 57.9518 47.9554 58.0405 47.8659L76.9502 28.957C78.8255 26.9584 81.4071 26.4617 82.1792 26.5873C86.2822 27.2542 90.6348 26.0051 93.7978 22.8421C96.8415 19.7975 98.1095 15.6529 97.6081 11.6888L90.9628 18.3341ZM55.1521 46.8631C53.9987 48.0166 52.1272 48.0166 50.9738 46.8631C49.8203 45.7089 49.8203 43.8382 50.9738 42.6847C52.1272 41.5305 53.9987 41.5305 55.1521 42.6847C56.3056 43.8382 56.3056 45.7096 55.1521 46.8631ZM77.6752 22.4419L59.9967 40.1212C59.3328 40.7843 58.257 40.7843 57.5932 40.1204C56.9294 39.4566 56.9294 38.3808 57.5932 37.7178L75.2718 20.0392C75.9356 19.3754 77.0114 19.3754 77.6752 20.0392C78.3383 20.7023 78.3383 21.7788 77.6752 22.4419Z" fill="#FCB53B"></path> <path class="second" fill-rule="evenodd" clip-rule="evenodd" d="M138.457 18.3341L129.256 15.8695L126.792 6.67005L133.374 0.0890436C129.453 -0.363706 125.373 0.909804 122.366 3.91587C119.343 6.9392 118.069 11.0477 118.543 14.9868C118.659 15.9456 118.925 18.0901 116.251 20.7643L97.3416 39.674C97.2522 39.7626 97.1737 39.8568 97.0992 39.9533C96.9572 40.071 96.8191 40.1958 96.6857 40.33C94.4235 42.5914 94.4235 46.2597 96.6857 48.5219C98.9486 50.7841 102.616 50.7841 104.879 48.5219C105.012 48.3893 105.137 48.2504 105.254 48.1084C105.351 48.0338 105.446 47.9554 105.534 47.8659L124.444 28.957C126.319 26.9584 128.901 26.4617 129.673 26.5873C133.776 27.2542 138.129 26.0051 141.292 22.8421C144.335 19.7975 145.603 15.6529 145.102 11.6888L138.457 18.3341ZM102.646 46.8631C101.493 48.0166 99.6211 48.0166 98.4676 46.8631C97.3142 45.7089 97.3142 43.8382 98.4676 42.6847C99.6211 41.5305 101.493 41.5305 102.646 42.6847C103.799 43.8382 103.799 45.7096 102.646 46.8631ZM125.169 22.4419L107.491 40.1212C106.827 40.7843 105.751 40.7843 105.087 40.1204C104.423 39.4566 104.423 38.3808 105.087 37.7178L122.766 20.0392C123.429 19.3754 124.505 19.3754 125.169 20.0392C125.832 20.7023 125.832 21.7788 125.169 22.4419Z" fill="#FCB53B"></path> <path class="first" fill-rule="evenodd" clip-rule="evenodd" d="M185.952 18.3341L176.751 15.8695L174.287 6.67005L180.868 0.0890436C176.948 -0.363706 172.868 0.909804 169.861 3.91587C166.838 6.9392 165.564 11.0477 166.038 14.9868C166.154 15.9456 166.42 18.0901 163.745 20.7643L144.837 39.674C144.747 39.7626 144.669 39.8568 144.594 39.9533C144.452 40.071 144.314 40.1958 144.181 40.33C141.918 42.5914 141.918 46.2597 144.181 48.5219C146.444 50.7841 150.111 50.7841 152.374 48.5219C152.507 48.3893 152.631 48.2504 152.749 48.1084C152.846 48.0338 152.941 47.9554 153.029 47.8659L171.939 28.957C173.814 26.9584 176.396 26.4617 177.168 26.5873C181.271 27.2542 185.624 26.0051 188.787 22.8421C191.83 19.7975 193.098 15.6529 192.597 11.6888L185.952 18.3341ZM150.141 46.8631C148.987 48.0166 147.116 48.0166 145.963 46.8631C144.809 45.7089 144.809 43.8382 145.963 42.6847C147.116 41.5305 148.987 41.5305 150.141 42.6847C151.294 43.8382 151.294 45.7096 150.141 46.8631ZM172.664 22.4419L154.985 40.1212C154.322 40.7843 153.246 40.7843 152.582 40.1204C151.918 39.4566 151.918 38.3808 152.582 37.7178L170.261 20.0392C170.924 19.3754 172 19.3754 172.664 20.0392C173.327 20.7023 173.327 21.7788 172.664 22.4419" fill="#FCB53B"></path> </g> </svg>